{
  "asset": {
    "version": "2.0",
    "generator": "THREE.GLTFExporter"
  },
  "scenes": [
    {
      "name": "Scene",
      "nodes": [
        1
      ]
    }
  ],
  "scene": 0,
  "nodes": [
    {
      "matrix": [
        2.220446049250313e-16,
        2.220446049250313e-16,
        1,
        0,
        -1,
        0,
        2.220446049250313e-16,
        0,
        0,
        -1,
        2.220446049250313e-16,
        0,
        38.93160579016787,
        3.9830503003480118,
        -66.20137443854557,
        1
      ],
      "name": "mesh_0",
      "mesh": 0
    },
    {
      "name": "undefined.gltf",
      "children": [
        0
      ]
    }
  ],
  "bufferViews": [
    {
      "buffer": 0,
      "byteOffset": 0,
      "byteLength": 689760,
      "target": 34962,
      "byteStride": 12
    },
    {
      "buffer": 0,
      "byteOffset": 689760,
      "byteLength": 689760,
      "target": 34962,
      "byteStride": 12
    },
    {
      "buffer": 0,
      "byteOffset": 1379520,
      "byteLength": 689760,
      "target": 34962,
      "byteStride": 12
    },
    {
      "buffer": 0,
      "byteOffset": 2069280,
      "byteLength": 114960,
      "target": 34963
    }
  ],
  "buffers": [
    {
      "byteLength": 2184240,
      "uri": "data:application/octet-stream;base64,"
    }
  ],
  "accessors": [
    {
      "bufferView": 0,
      "componentType": 5126,
      "count": 57480,
      "max": [
        151.1167449951172,
        77.95252227783203,
        9.602751731872559
      ],
      "min": [
        -9.257750511169434,
        -1.269374966621399,
        -1.2700003385543823
      ],
      "type": "VEC3"
    },
    {
      "bufferView": 1,
      "componentType": 5126,
      "count": 57480,
      "max": [
        1,
        1,
        1
      ],
      "min": [
        -1,
        -1,
        -1
      ],
      "type": "VEC3"
    },
    {
      "bufferView": 2,
      "componentType": 5126,
      "count": 57480,
      "max": [
        0.6129032373428345,
        0.6129032373428345,
        0.6129032373428345
      ],
      "min": [
        0.6129032373428345,
        0.6129032373428345,
        0.6129032373428345
      ],
      "type": "VEC3"
    },
    {
      "bufferView": 3,
      "componentType": 5123,
      "count": 57480,
      "max": [
        57479
      ],
      "min": [
        0
      ],
      "type": "SCALAR"
    }
  ],
  "materials": [
    {
      "pbrMetallicRoughness": {
        "baseColorFactor": [
          0.8,
          0.8,
          0.8,
          1
        ],
        "metallicFactor": 0.5,
        "roughnessFactor": 0.5
      },
      "name": "material-1"
    }
  ],
  "meshes": [
    {
      "primitives": [
        {
          "mode": 4,
          "attributes": {
            "POSITION": 0,
            "NORMAL": 1,
            "COLOR_0": 2
          },
          "indices": 3,
          "material": 0
        }
      ]
    }
  ]
}